# Blender v2.79 (sub 0) OBJ File: ''
# www.blender.org
mtllib splorgdiamond.mtl
o Solid
v 0.700000 0.000000 0.000000
v -0.700000 0.000000 0.000000
v 0.000000 0.000000 -0.700000
v 0.000000 0.000000 0.700000
v 0.000000 1.000000 0.000000
v 0.000000 -1.000000 0.000000
vn 0.6337 0.4436 -0.6337
vn -0.6337 0.4436 -0.6337
vn -0.6337 0.4436 0.6337
vn 0.6337 0.4436 0.6337
vn 0.6337 -0.4436 -0.6337
vn -0.6337 -0.4436 -0.6337
vn -0.6337 -0.4436 0.6337
vn 0.6337 -0.4436 0.6337
usemtl Material.001
s off
f 5//1 1//1 3//1
f 5//2 3//2 2//2
f 5//3 2//3 4//3
f 5//4 4//4 1//4
f 6//5 3//5 1//5
f 6//6 2//6 3//6
f 6//7 4//7 2//7
f 6//8 1//8 4//8
